<svg xmlns="http://www.w3.org/2000/svg" viewBox="0 0 16 16"><g id="Layer_2" data-name="Layer 2"><g id="Layer_1-2" data-name="Layer 1"><path d="M15,10.33a1,1,0,0,0-1,1v1A1.67,1.67,0,0,1,12.33,14h-1a1,1,0,1,0,0,2h1A3.67,3.67,0,0,0,16,12.33v-1A1,1,0,0,0,15,10.33Z"/><path d="M4.67,0h-1A3.67,3.67,0,0,0,0,3.67v1a1,1,0,0,0,2,0v-1A1.67,1.67,0,0,1,3.67,2h1a1,1,0,0,0,0-2Z"/><path d="M4.67,14h-1A1.67,1.67,0,0,1,2,12.33v-1a1,1,0,0,0-2,0v1A3.67,3.67,0,0,0,3.67,16h1a1,1,0,1,0,0-2Z"/><path d="M12.33,0h-1a1,1,0,0,0,0,2h1A1.67,1.67,0,0,1,14,3.67v1a1,1,0,1,0,2,0v-1A3.67,3.67,0,0,0,12.33,0Z"/></g></g></svg>