<svg xmlns="http://www.w3.org/2000/svg" viewBox="0 0 16 16"><g id="Layer_2" data-name="Layer 2"><g id="Layer_1-2" data-name="Layer 1"><path d="M11.33,16a1,1,0,0,0,1-1V14A1.67,1.67,0,0,1,14,12.33h1a1,1,0,0,0,0-2H14A3.69,3.69,0,0,0,10.33,14v1A1,1,0,0,0,11.33,16Z"/><path d="M1,5.67H2A3.68,3.68,0,0,0,5.67,2V1a1,1,0,0,0-2,0V2A1.67,1.67,0,0,1,2,3.67H1a1,1,0,0,0,0,2Z"/><path d="M1,12.33H2A1.67,1.67,0,0,1,3.67,14v1a1,1,0,0,0,2,0V14A3.69,3.69,0,0,0,2,10.33H1a1,1,0,0,0,0,2Z"/><path d="M14,5.67h1a1,1,0,0,0,0-2H14A1.67,1.67,0,0,1,12.33,2V1a1,1,0,0,0-2,0V2A3.67,3.67,0,0,0,14,5.67Z"/></g></g></svg>