<svg xmlns="http://www.w3.org/2000/svg" viewBox="0 0 19.38 16"><g id="Layer_2" data-name="Layer 2"><g id="Layer_1-2" data-name="Layer 1"><path d="M14.84,3.56H10.16a1,1,0,0,0-1,1V7.71a.83.83,0,0,0,.83.83h5a.83.83,0,0,0,.83-.83V4.54A1,1,0,0,0,14.84,3.56Zm0,0H10.16a1,1,0,0,0-1,1V7.71a.83.83,0,0,0,.83.83h5a.83.83,0,0,0,.83-.83V4.54A1,1,0,0,0,14.84,3.56Zm0,0H10.16a1,1,0,0,0-1,1V7.71a.83.83,0,0,0,.83.83h5a.83.83,0,0,0,.83-.83V4.54A1,1,0,0,0,14.84,3.56Z"/><path d="M15.74,2a1.64,1.64,0,0,1,1.64,1.63v8.74A1.64,1.64,0,0,1,15.74,14H3.63A1.63,1.63,0,0,1,2,12.37V3.63A1.63,1.63,0,0,1,3.63,2H15.74m0-2H3.63A3.64,3.64,0,0,0,0,3.63v8.74A3.64,3.64,0,0,0,3.63,16H15.74a3.64,3.64,0,0,0,3.64-3.63V3.63A3.64,3.64,0,0,0,15.74,0Z"/></g></g></svg>