<svg xmlns="http://www.w3.org/2000/svg" viewBox="0 0 17.11 16"><g id="Layer_2" data-name="Layer 2"><g id="Layer_1-2" data-name="Layer 1"><path d="M14.59,1.91A.79.79,0,0,0,13.47,3a7,7,0,0,1,0,10,.79.79,0,0,0,1.06,1.18l.06-.07A8.61,8.61,0,0,0,14.59,1.91Z"/><path d="M12.45,4.28a.79.79,0,0,0-1.14,1.09l0,0a3.68,3.68,0,0,1,0,5.21.79.79,0,1,0,1.1,1.13l0,0A5.26,5.26,0,0,0,12.45,4.28Z"/><path d="M9.36,0A8.15,8.15,0,0,0,4.25,3.26H3.39A3.39,3.39,0,0,0,0,6.65v2.7a3.39,3.39,0,0,0,3.39,3.39h.86A8.15,8.15,0,0,0,9.36,16a.68.68,0,0,0,.79-.54.62.62,0,0,0,0-.13V.68A.67.67,0,0,0,9.48,0Z"/></g></g></svg>