<svg xmlns="http://www.w3.org/2000/svg" viewBox="0 0 17.52 16.07"><defs><style>.cls-1{fill:#fff;}</style></defs><g id="Layer_2" data-name="Layer 2"><g id="Layer_1-2" data-name="Layer 1"><path class="cls-1" d="M15.28,9.89,16.59,11a8.58,8.58,0,0,0-2-9,.79.79,0,0,0-1.11,1.12A7,7,0,0,1,15.28,9.89Z"/><path class="cls-1" d="M11.34,5.46a3.56,3.56,0,0,1,1,2l1.59,1.32a5.26,5.26,0,0,0-1.49-4.43.79.79,0,1,0-1.13,1.1Z"/><path class="cls-1" d="M10.17.74A.69.69,0,0,0,9.49.06H9.37A8.13,8.13,0,0,0,5.63,1.85l4.54,3.78Z"/><path class="cls-1" d="M17.22,13,1.9.2A.85.85,0,0,0,.82,1.5L3.05,3.36A3.38,3.38,0,0,0,0,6.71V9.42A3.39,3.39,0,0,0,3.39,12.8h.86a8.15,8.15,0,0,0,5.12,3.25.66.66,0,0,0,.78-.54.5.5,0,0,0,0-.12V9.29l1.36,1.14a2.11,2.11,0,0,1-.19.23.79.79,0,0,0,0,1.12.8.8,0,0,0,1.12,0,0,0,0,0,1,0,0,3.31,3.31,0,0,0,.3-.34l1.23,1a6.8,6.8,0,0,1-.5.57.79.79,0,0,0,1,1.18l.06-.06a6.26,6.26,0,0,0,.6-.67l.94.77a.81.81,0,0,0,.54.2.83.83,0,0,0,.66-.31A.84.84,0,0,0,17.22,13Z"/></g></g></svg>