<svg xmlns="http://www.w3.org/2000/svg" viewBox="0 0 14.4 16"><defs><style>.cls-1{fill:#fff;}</style></defs><g id="Layer_2" data-name="Layer 2"><g id="Layer_1-2" data-name="Layer 1"><path class="cls-1" d="M.27,12A2,2,0,0,0,3,12.73H3l.3-.17a6,6,0,0,0,1.9,1.1V14a2,2,0,1,0,4,0v-.34a6.13,6.13,0,0,0,1.9-1.1l.29.17a2,2,0,1,0,2-3.46h0L13.1,9.1a6.25,6.25,0,0,0,0-2.2l.29-.17a2,2,0,1,0-2-3.47l-.29.18a6.13,6.13,0,0,0-1.9-1.1V2a2,2,0,1,0-4,0v.34a6,6,0,0,0-1.9,1.1L3,3.27A2,2,0,0,0,1,6.73H1l.3.17a5.81,5.81,0,0,0,0,2.2L1,9.27A2,2,0,0,0,.27,12ZM7.2,5.33A2.67,2.67,0,1,1,4.53,8,2.67,2.67,0,0,1,7.2,5.33Z"/></g></g></svg>