<svg xmlns="http://www.w3.org/2000/svg" viewBox="0 0 21.52 20.27"><defs><style>.cls-1{fill:#fff;}</style></defs><g id="Layer_2" data-name="Layer 2"><g id="Layer_1-2" data-name="Layer 1"><path class="cls-1" d="M8.65,18.14H1a1,1,0,0,0,0,2H8.65a1,1,0,0,0,0-2Z"/><path class="cls-1" d="M12.29,0a10.16,10.16,0,0,0-11,9.19,1,1,0,0,0,.23.72,1,1,0,0,0,.66.35,1,1,0,0,0,1.07-.89,8.18,8.18,0,1,1,8.9,8.89,1,1,0,0,0,.05,2h.12A10.16,10.16,0,0,0,12.29,0Z"/><path class="cls-1" d="M13.86,13.63h0a1,1,0,0,0,.69-.3,1,1,0,0,0,0-1.37L12.36,9.75V6a1,1,0,0,0-2,0v4.17a.94.94,0,0,0,.29.69l2.5,2.5A1,1,0,0,0,13.86,13.63Z"/><path class="cls-1" d="M8.65,15H1a1,1,0,0,0,0,2H8.65a1,1,0,0,0,0-2Z"/><path class="cls-1" d="M8.65,11.87H1a1,1,0,0,0,0,2H8.65a1,1,0,0,0,0-2Z"/></g></g></svg>